<?xml version="1.0" encoding="UTF-8"?>
<!DOCTYPE svg PUBLIC "-//W3C//DTD SVG 1.1//EN" "http://www.w3.org/Graphics/SVG/1.1/DTD/svg11.dtd">
<!-- Creator: CorelDRAW 2019 (64-Bit) -->
<svg xmlns="http://www.w3.org/2000/svg" xml:space="preserve" width="266mm" height="185mm" version="1.1" style="shape-rendering:geometricPrecision; text-rendering:geometricPrecision; image-rendering:optimizeQuality; fill-rule:evenodd; clip-rule:evenodd"
viewBox="0 0 26600 18500"
 xmlns:xlink="http://www.w3.org/1999/xlink">
 <defs>
  <style type="text/css">
   <![CDATA[
    .str0 {stroke:#382F2A;stroke-width:70.56;stroke-miterlimit:22.9256}
    .fil2 {fill:#382F2A;fill-rule:nonzero}
    .fil0 {fill:#5DAFDD;fill-rule:nonzero}
    .fil3 {fill:#EFC89E;fill-rule:nonzero}
    .fil1 {fill:#E2441A;fill-rule:nonzero;fill-opacity:0.619608}
    .fil5 {fill:#382F2A;fill-rule:nonzero}
    .fil4 {fill:#E9AE93;fill-rule:nonzero}
   ]]>
  </style>
 </defs>
 <g id="Layer_x0020_1">
  <metadata id="CorelCorpID_0Corel-Layer"/>
  <g id="_1825790462368">
   <path class="fil0 str0" d="M15034.98 13108.95c-839.43,0 -1499.31,-546.77 -1428.69,-1183.8l41.67 -376.05 2774.04 0 41.68 376.05c70.6,637.03 -589.26,1183.8 -1428.7,1183.8z"/>
   <path class="fil1" d="M15034.98 12617.42c-839.43,0 -1499.31,-546.77 -1428.69,-1183.81l41.67 -376.05 2774.04 0 41.68 376.05c70.6,637.04 -589.26,1183.81 -1428.7,1183.81z"/>
   <path class="fil0" d="M13876.64 5548.14c-66.92,-18.86 -137.25,-29.66 -210.22,-29.66 -427.33,0 -773.76,346.43 -773.76,773.76 0,282.72 152.13,529.32 378.51,664.31l169.04 1195.74 3236.84 0 112.68 -1188.81c234.26,-163.73 387.85,-434.99 387.85,-742.49 0,-500.24 -405.53,-905.77 -905.78,-905.77 -97.66,0 -191.5,15.89 -279.63,44.48l-2115.53 188.44z"/>
   <path class="fil2" d="M13876.64 5548.14c-181.38,-42.84 -373.31,-14.92 -531.99,68.7 -158.5,84.59 -283.69,224.73 -346.68,387.85 -62.74,162.73 -65.66,346.37 -7.51,506.72 57.01,161.01 174.59,296.51 320.15,379l30.71 17.4 6.11 37.97c63.89,397.51 129.83,794.72 189.55,1192.83l-96.77 -84.06c269.74,-2.62 539.48,-8.26 809.21,-8.43l809.21 -3.32c269.74,-1.38 539.48,1.54 809.2,2.1 269.74,0.97 539.48,1.77 809.2,6.03l-100.89 91.8 63.22 -593.76 66.73 -593.42 4.54 -40.42 30.97 -20.52c162.99,-107.98 285.28,-276.56 339.95,-466.96 54.89,-190.67 39.09,-402.87 -45.68,-586.73 -82.74,-185.39 -236.87,-338.97 -424.69,-428.02 -188.19,-88.02 -411.18,-109.88 -619.01,-53.2 200.77,-77.96 433.81,-79.8 641.88,-1.19 208.24,77.66 388.18,235.13 495.58,435.67 108.47,200.54 139.54,442.25 87.93,668.17 -50.44,226.83 -189.66,432.54 -379.69,569.99l35.51 -60.93 -45.96 595.4 -49.46 595.05 -7.51 90.33 -93.42 1.46c-269.72,4.27 -539.46,5.06 -809.2,6.03 -269.72,0.56 -539.46,3.48 -809.2,2.11l-809.21 -3.33c-269.73,-0.17 -539.47,-5.79 -809.21,-8.43l-85.73 -0.84 -11.05 -83.23c-52.97,-399.05 -99.71,-798.98 -148.49,-1198.62l36.8 55.35c-173.78,-107.62 -303.55,-279.7 -360.87,-472.37 -59.02,-192.61 -41.9,-403.91 42.28,-582.18 83.13,-178.77 232.41,-322.53 409.32,-397.79 176.46,-76.69 378.38,-82.79 554.17,-22.21z"/>
   <g>
    <path class="fil2" d="M16097.12 6786.63c69.63,40.98 137.04,76.53 204.72,105.42 67.89,28.34 136.53,46.9 204.56,52.13 67.93,5.41 136.68,-2.24 203.56,-28.2 34.98,-9.21 66.35,-28.77 101.34,-43.89 34.14,-16.89 65.29,-39.5 103.12,-57.04 -20.15,34.43 -42.71,69.07 -70.05,99.8 -30.19,27.42 -58.78,59.46 -97.17,78.56 -35.08,25.25 -77.06,36.99 -118.59,50.97 -42.75,8.07 -86.91,14.39 -130.53,9.55 -87.45,-6.47 -169.5,-39.95 -237.72,-87.02 -68.01,-47.45 -126.27,-107.46 -163.24,-180.28z"/>
   </g>
   <g>
    <path class="fil2" d="M13132.95 6786.63c69.63,40.98 137.04,76.53 204.72,105.42 67.89,28.34 136.53,46.9 204.57,52.13 67.93,5.41 136.66,-2.24 203.55,-28.2 34.98,-9.21 66.35,-28.77 101.32,-43.89 34.16,-16.89 65.31,-39.5 103.14,-57.04 -20.15,34.43 -42.73,69.07 -70.05,99.8 -30.19,27.42 -58.78,59.46 -97.17,78.56 -35.08,25.25 -77.06,36.99 -118.58,50.97 -42.76,8.07 -86.92,14.39 -130.54,9.55 -87.45,-6.47 -169.5,-39.95 -237.72,-87.02 -68.01,-47.45 -126.27,-107.46 -163.24,-180.28z"/>
   </g>
   <path class="fil0" d="M13706.89 5895.67c0,-742.02 601.53,-1343.57 1343.54,-1343.57 742.04,0 1343.57,601.55 1343.57,1343.57l-2687.11 0z"/>
   <path class="fil2" d="M13706.89 5895.67c-24.05,-176.14 -3.61,-360.25 52.67,-534.74 58.16,-173.85 153.21,-338.22 280.32,-475.84 125.35,-139.53 284,-248.89 456.61,-326.67 173.46,-76.86 363.95,-115.59 553.94,-116.39 190.03,0.64 380.5,39.42 554.09,116.11 172.53,77.94 331.4,187.07 456.72,326.74 127.13,137.66 222.2,302.02 280.35,475.94 56.2,174.56 76.64,358.7 52.41,534.85 -45.7,-351.9 -209.34,-667.44 -454.27,-889.28 -244.47,-222.55 -565.93,-344.14 -889.3,-344.2 -323.42,-0.33 -644.91,121.48 -889.51,343.96 -245.05,221.86 -408.62,537.62 -454.03,889.52z"/>
   <path class="fil0" d="M16394 6338.71c0,496.05 -601.53,898.18 -1343.57,898.18 -742.01,0 -1343.54,-402.13 -1343.54,-898.18l2687.11 0z"/>
   <path class="fil2" d="M16394 6338.71c23.63,149.23 -22.23,309.8 -106.51,442.85 -86.04,132.99 -206.06,242.52 -339.88,325.25 -269.44,165.85 -585.92,237.23 -897.18,240.15 -311.25,-2.61 -627.81,-74.02 -897.3,-239.89 -133.91,-82.68 -253.9,-192.31 -339.96,-325.34 -84.22,-133.14 -130.1,-293.77 -106.28,-443.02 26.18,148.43 95.93,276.36 192.02,377.13 94.21,102.69 212.96,179.47 337.98,239.68 252.29,119.45 534.02,168.16 813.54,171.28 279.56,-2.81 561.36,-51.55 813.72,-171.03 125.08,-60.13 243.8,-137.04 338.06,-239.74 96.03,-100.88 165.79,-228.85 191.79,-377.32z"/>
   <path class="fil0 str0" d="M13167.41 8883.95c0,0 -256.29,1077.29 19.19,2017.07 213.9,729.72 779.55,1486.02 1852.61,1450.01 1349.73,-45.27 1483.91,-1356.52 1611.61,-2241.49l-3483.41 -1225.59z"/>
   <path class="fil0 str0" d="M16817.66 8883.95c0,0 256.31,1077.29 -19.18,2017.07 -213.9,729.72 -779.55,1486.02 -1852.61,1450.01 -1349.73,-45.27 -1483.91,-1356.52 -1611.62,-2241.49l3483.41 -1225.59z"/>
   <g>
    <path class="fil3 str0" d="M13222.81 8981.88c0,0 -43.03,2854.99 1769.76,2854.99 1812.76,0 1794.94,-2854.99 1794.94,-2854.99 0,0 -338.73,-1173.13 -1782.4,-1155.31 -1443.66,17.82 -1782.3,1155.31 -1782.3,1155.31z"/>
    <path class="fil4" d="M14631.97 9625.47c0,0 226.46,-379.47 48.66,-532.99 -280.37,-242.06 -801.46,-255.98 -951.44,-78.24 -149.98,177.73 -26.55,585.37 -26.55,585.37 0,0 130.86,-169.22 419.56,-192.68 309.77,-25.19 509.77,218.54 509.77,218.54z"/>
    <path class="fil4" d="M15377.51 9625.47c0,0 -226.45,-379.47 -48.64,-532.99 280.36,-242.06 801.46,-255.98 951.44,-78.24 149.97,177.73 26.54,585.37 26.54,585.37 0,0 -130.87,-169.22 -419.56,-192.68 -309.77,-25.19 -509.78,218.54 -509.78,218.54z"/>
    <g>
     <g>
      <g>
       <path class="fil2" d="M14644.58 9593.86c1.68,57.82 -17.61,117.39 -54.5,168.16 -36.89,50.6 -91.27,90.28 -149.46,113.38 -29.03,12.33 -59.24,20.52 -89.25,26.17 -15.24,3.22 -29.92,4.68 -44.76,6.51 -7.76,0.87 -13.5,1.78 -25.25,1.95 -9.35,0.14 -17.58,-0.09 -25.77,-0.53 -64.63,-3.31 -123.74,-19.04 -180.05,-41.81 -56.04,-22.96 -108.04,-53.76 -154.35,-90.42 -11.89,-8.83 -22.74,-18.78 -33.77,-28.44l-16.26 -14.6 -11.66 -11.26c-16.01,-14.29 -33.05,-26.92 -51.64,-37.17 -73.35,-42.06 -179.75,-37.88 -282.41,2.75 33.99,-44.29 81.34,-79.55 137.04,-101.55 55.32,-23.02 122.57,-28.42 186.01,-11.33 31.65,8.35 61.91,21.78 89.36,38.73l35.82 23c10.25,6.57 20.24,13.46 30.94,19.09 41.63,24.36 84.65,44.57 128.63,59.87 43.57,15.42 89.64,25.83 131.95,29.32l14.36 0.67c1.67,0.28 9.22,-0.58 14.81,-0.56 11.85,-0.33 23.94,-0.31 35.1,-1.72 23.03,-1.31 45.45,-4.3 67.42,-8.21 87.88,-15.02 168.83,-55.73 247.69,-142z"/>
      </g>
      <g>
       <path class="fil2" d="M14776.59 9177.24c-104.84,-39.63 -198.04,-78.55 -288.75,-111.88 -90.55,-32.37 -177.39,-58.03 -260.12,-68.05 -20.39,-0.48 -41.38,-5.79 -61.31,-3.62 -19.85,-0.7 -40.37,-0.64 -63.75,1.72 -45.24,2.87 -90.26,8.36 -135.62,16.68 -90.89,17.04 -183.25,42.14 -284.08,90.19 32.28,-110.62 122.31,-196.72 223.56,-252.43 51.11,-28.56 106.91,-47.87 163.57,-60.77 27.47,-7.21 58.46,-10.23 90.22,-12.8 31.65,-3.62 62.07,1.36 93.2,2.4 122.69,15.22 231.1,68.37 319.96,136.85 87.56,70.61 161.23,156.02 203.12,261.71z"/>
      </g>
     </g>
    </g>
    <g>
     <g>
      <g>
       <path class="fil2" d="M15374.55 9593.86c78.86,86.27 159.81,126.98 247.68,142 21.99,3.91 44.39,6.9 67.42,8.21 11.16,1.41 23.26,1.39 35.1,1.72 5.59,-0.02 13.16,0.84 14.8,0.56l14.39 -0.67c42.29,-3.49 88.36,-13.9 131.93,-29.32 43.98,-15.3 87.01,-35.51 128.63,-59.87 10.71,-5.63 20.69,-12.52 30.95,-19.09l35.83 -23c27.43,-16.95 57.71,-30.38 89.35,-38.73 63.43,-17.09 130.68,-11.69 186.02,11.33 55.69,22 103.05,57.26 137.03,101.55 -102.66,-40.63 -209.07,-44.81 -282.42,-2.75 -18.58,10.25 -35.63,22.88 -51.64,37.17l-11.66 11.26 -16.26 14.6c-11.03,9.66 -21.89,19.61 -33.75,28.44 -46.32,36.66 -98.32,67.46 -154.37,90.42 -56.29,22.77 -115.42,38.5 -180.05,41.81 -8.19,0.44 -16.41,0.67 -25.76,0.53 -11.75,-0.17 -17.5,-1.08 -25.25,-1.95 -14.84,-1.83 -29.53,-3.29 -44.76,-6.51 -30.01,-5.65 -60.23,-13.84 -89.25,-26.17 -58.22,-23.1 -112.57,-62.78 -149.47,-113.38 -36.89,-50.77 -56.18,-110.34 -54.49,-168.16z"/>
      </g>
      <g>
       <path class="fil2" d="M15242.53 9177.24c41.89,-105.69 115.57,-191.1 203.1,-261.71 88.88,-68.48 197.3,-121.63 319.98,-136.85 31.13,-1.04 61.57,-6.02 93.2,-2.4 31.78,2.57 62.75,5.59 90.22,12.8 56.67,12.9 112.46,32.21 163.57,60.77 101.25,55.71 191.29,141.81 223.56,252.43 -100.83,-48.05 -193.19,-73.15 -284.08,-90.19 -45.35,-8.32 -90.38,-13.81 -135.62,-16.68 -23.38,-2.36 -43.88,-2.42 -63.75,-1.72 -19.93,-2.17 -40.92,3.14 -61.29,3.62 -82.74,10.02 -169.59,35.68 -260.14,68.05 -90.7,33.33 -183.9,72.25 -288.75,111.88z"/>
      </g>
     </g>
    </g>
    <path class="fil4" d="M14781.87 10433.12c0,0 208.82,323.54 438.11,0l-438.11 0z"/>
    <g>
     <path class="fil5" d="M14699.85 10394.17c56.87,7.3 107.38,13.55 157.63,17.14 49.86,3.74 98.19,6.57 146.64,5.35 48.28,-1.51 96.97,-2.25 146.85,-8.23 50.64,-3.27 101.15,-12.21 159.42,-14.26 -37.55,43.29 -85.04,76.33 -137.7,98.07 -52.25,23.32 -110.1,33.13 -167.59,34.51 -57.71,1.23 -115.47,-10.48 -168.55,-31.75 -52.56,-22.05 -102.53,-53.5 -136.7,-100.83z"/>
    </g>
    <path class="fil4" d="M14456.58 10901.02c0,0 188.39,380.46 548.53,380.46 360.15,0 548.55,-380.46 548.55,-380.46l-548.55 127.22 -548.53 -127.22z"/>
    <path class="fil2" d="M14456.58 10901.02c0,0 548.53,372.91 1097.08,0l-448.76 0 -87.22 63.23 -73.81 -63.23 -487.29 0z"/>
    <g>
     <path class="fil2" d="M14839.69 11304.74c55.13,-21.71 110.29,-26.58 165.42,-27.52 55.16,0.81 110.29,5.7 165.45,27.52 -55.16,21.83 -110.29,26.71 -165.45,27.51 -55.13,-0.92 -110.29,-5.8 -165.42,-27.51z"/>
    </g>
   </g>
   <path class="fil0 str0" d="M13304.29 9977.08c0,0 696.25,-2274.41 1932.19,-2226.54 0,0 -1062.18,-392.53 -1657.56,231.74 -523.71,549.09 -497.66,1075.57 -274.63,1994.8z"/>
   <path class="fil0 str0" d="M16859.91 9977.08c0,0 -581.98,-2272.22 -1817.92,-2224.37 0,0 984.29,-355.92 1543.29,229.57 523.97,548.81 497.64,1075.57 274.63,1994.8z"/>
  </g>
 </g>
</svg>
